<svg xmlns="http://www.w3.org/2000/svg" xmlns:xlink="http://www.w3.org/1999/xlink" width="2000" zoomAndPan="magnify" viewBox="0 0 1500 1499.999933" height="2000" preserveAspectRatio="xMidYMid meet" version="1.0"><defs><g/><clipPath id="325f405f55"><path d="M 436.6875 354.378906 L 991 354.378906 L 991 877 L 436.6875 877 Z M 436.6875 354.378906 " clip-rule="nonzero"/></clipPath><clipPath id="b11314c45c"><rect x="0" width="809" y="0" height="307"/></clipPath><clipPath id="18fa335320"><rect x="0" width="346" y="0" height="84"/></clipPath><clipPath id="4f54a413e1"><path d="M 571.871094 529.070312 L 782.621094 529.070312 L 782.621094 853.820312 L 571.871094 853.820312 Z M 571.871094 529.070312 " clip-rule="nonzero"/></clipPath></defs><rect x="-150" width="1800" fill="#ffffff" y="-149.999993" height="1799.99992" fill-opacity="1"/><rect x="-150" width="1800" fill="#000000" y="-149.999993" height="1799.99992" fill-opacity="1"/><g clip-path="url(#325f405f55)"><path fill="#d7fa00" d="M 814.960938 354.710938 C 803.136719 354.871094 786.328125 356.964844 763.21875 361.105469 C 750.613281 363.367188 747.507812 364.464844 744.179688 367.835938 C 740.371094 371.691406 740.183594 372.570312 739.761719 388.269531 C 739.332031 404.390625 739.390625 404.722656 742.921875 407.027344 C 744.898438 408.316406 751.511719 413.757812 757.621094 419.113281 C 771.886719 431.628906 774.375 431.769531 788.691406 420.882812 C 794.921875 416.144531 795.242188 414.464844 789.941406 414.375 C 787.269531 414.328125 778.351562 410.273438 780.636719 410.148438 C 781.144531 410.117188 786.605469 411.792969 792.78125 413.867188 C 811.886719 418.605469 819.316406 398.628906 834.464844 391.464844 C 865.574219 398.273438 853.925781 440.542969 878.710938 476.582031 C 892.828125 502.945312 904.84375 506.335938 936.855469 492.992188 C 938.773438 492.191406 939.308594 492.34375 938.601562 493.484375 C 937.015625 496.050781 915.195312 502.433594 908.007812 502.433594 C 898.988281 502.433594 892.945312 499.515625 886.902344 492.242188 L 881.71875 486 C 854.449219 481.859375 836.457031 494.027344 828.539062 507.191406 C 827.148438 508.863281 797.265625 529.410156 794.503906 539.34375 C 792.976562 514.285156 822.191406 507.453125 820.324219 507.195312 C 795.011719 511.808594 732.210938 509.234375 716.207031 532.996094 C 700.390625 507.667969 717.878906 481.941406 720.734375 472.03125 C 724.320312 459.960938 722.128906 446.945312 715.6875 436.453125 C 714.851562 432.925781 712.144531 429.863281 709.503906 427.339844 C 705.121094 423.148438 699.445312 420.382812 695.484375 415.816406 C 691.28125 410.96875 688.726562 404.148438 682.042969 401.890625 C 670.652344 398.042969 658.472656 401.625 647.742188 405.730469 C 641.441406 408.140625 634.917969 409.824219 628.109375 410.277344 C 622.351562 410.65625 610.773438 404.300781 610.84375 410.046875 C 610.882812 413.539062 622.933594 407.699219 619.585938 409.722656 C 616.441406 411.617188 613.195312 412.613281 609.179688 413.179688 C 602.28125 414.15625 595.390625 414.972656 588.382812 415.179688 C 586.859375 415.222656 584.320312 414.300781 587.46875 415.402344 C 592.445312 417.144531 596.445312 420.109375 601.679688 422.03125 C 606.847656 423.929688 598.394531 424.914062 596.511719 425.054688 C 585.636719 425.851562 573.886719 428.566406 563.804688 424.335938 C 561.769531 423.484375 560.324219 423.621094 562.070312 425.933594 C 565.8125 430.882812 572.382812 432.183594 578.003906 433.972656 C 580.1875 434.667969 586.066406 435.675781 585.699219 435.710938 C 578.5 436.355469 573.167969 443.574219 565.675781 442.511719 C 563.613281 442.21875 561.941406 442.355469 564.738281 443.5625 C 575.679688 448.292969 585.535156 456.179688 597.214844 458.921875 C 595.214844 463.753906 595.59375 467.964844 598.152344 474.667969 C 600.460938 480.714844 600.433594 481.125 597.1875 488.054688 C 595.347656 491.988281 584.730469 498.476562 582.878906 499.6875 C 578.363281 502.648438 589.851562 503.023438 595.03125 508.441406 C 598.863281 512.453125 597.070312 518.136719 595.660156 521.699219 C 604.039062 520.730469 601.011719 522.195312 608.191406 524.082031 C 601.402344 524.835938 597.351562 526.890625 598.648438 528.875 C 602.929688 535.414062 608.828125 542.136719 618.320312 552.277344 C 634.828125 546.519531 640.425781 539.828125 644.308594 541.835938 C 654.535156 547.125 655.613281 553.0625 648.535156 565.144531 C 644.320312 572.335938 641.945312 573.503906 625.34375 576.566406 C 600.554688 581.140625 579.492188 594.71875 571.90625 611.015625 C 563.191406 623.433594 572.605469 648.105469 572.605469 648.105469 C 572.605469 648.105469 559.640625 635.523438 564.316406 617.679688 C 539.984375 626.285156 524.695312 609.183594 501.011719 635.292969 C 495.890625 643.03125 495.015625 641.335938 499.863281 633.066406 C 503.390625 627.042969 503.667969 625.558594 502.785156 617.296875 C 502.246094 612.28125 499.90625 602.726562 497.582031 596.0625 C 492.546875 581.636719 489.621094 562.058594 491.058594 552.453125 C 491.890625 546.910156 492.480469 545.847656 494.019531 547.125 C 501.042969 552.953125 512.3125 551.433594 518.925781 543.765625 C 521.117188 541.226562 524.6875 538.246094 526.863281 537.144531 C 533.847656 533.605469 536.617188 525.269531 536.617188 507.769531 C 536.617188 492.984375 544.402344 484.140625 538.914062 485.402344 C 531.457031 487.117188 495.28125 463.578125 490.550781 467.875 C 477.535156 472.359375 469.128906 510.222656 457.984375 520.613281 C 458.039062 546.886719 453.988281 574.984375 447.339844 596.207031 C 437.605469 626.757812 436.585938 631.734375 436.597656 648.867188 C 436.613281 666.488281 440.179688 682.742188 446.558594 694.183594 C 448.507812 697.679688 449.746094 701.660156 449.3125 703.027344 C 448.730469 704.859375 450.066406 706.273438 454.382812 708.410156 C 460.175781 711.277344 460.382812 711.28125 473.539062 708.640625 C 509.378906 697.503906 523.015625 739.605469 582.019531 702.546875 C 591.273438 712.109375 569.34375 750.839844 586.722656 760.660156 C 586.722656 760.660156 621.914062 757.394531 630.371094 753.585938 C 625.8125 763.453125 586.785156 771.523438 586.785156 771.523438 C 571.914062 782.652344 599.273438 825.0625 577.253906 859.753906 C 577.128906 859.949219 577.011719 860.125 577.011719 860.160156 C 577.011719 862.351562 609.722656 843.167969 630.867188 845.40625 C 643.164062 846.710938 682.472656 855.832031 694.679688 867.539062 C 715.121094 887.144531 756.890625 869.839844 767.238281 864.878906 C 773.324219 840.242188 762.386719 793.335938 746.023438 774.738281 C 741.960938 770.238281 741.285156 768.566406 742.019531 764.886719 C 742.65625 761.710938 742.398438 760.613281 741.113281 761.027344 C 723.574219 779.25 706.714844 787.863281 702.542969 820.496094 C 702.523438 776.546875 730.488281 770.125 739.226562 757.988281 C 753.074219 738.753906 777.539062 716.132812 796.8125 701.777344 C 801.039062 698.628906 744.621094 695.121094 744.382812 665.921875 C 750.191406 694.085938 814.382812 689.699219 817.304688 687.257812 C 828.085938 678.253906 838.886719 665.175781 848.15625 649.75 C 855.078125 638.238281 863.628906 619.761719 862.539062 618.675781 C 857.210938 623.097656 844.65625 628.898438 841.804688 622.101562 C 847.15625 626.558594 859.347656 614.308594 865.90625 612.191406 C 911.558594 600.222656 934.847656 575.53125 964.429688 529.714844 C 971.808594 518.289062 988.910156 484.601562 990.25 478.847656 C 994.617188 460.128906 960.730469 419.785156 916.058594 390.523438 C 881.792969 368.074219 860.210938 359.6875 825.167969 355.1875 C 822.285156 354.816406 818.902344 354.65625 814.960938 354.710938 Z M 814.960938 354.710938 " fill-opacity="1" fill-rule="nonzero"/></g><g transform="matrix(1, 0, 0, 1, 348, 789)"><g clip-path="url(#b11314c45c)"><g fill="#000000" fill-opacity="1"><g transform="translate(5.029046, 236.616233)"><g><path d="M 7.828125 -187.425781 L 54.601562 -187.425781 C 63.175781 -187.425781 70.671875 -185.972656 77.085938 -183.074219 C 83.960938 -179.960938 89.460938 -175.289062 93.589844 -169.046875 C 100.789062 -158.167969 104.386719 -142.890625 104.386719 -123.214844 C 104.386719 -103.707031 101.214844 -88.660156 94.867188 -78.082031 C 91.089844 -71.785156 85.828125 -67.074219 79.085938 -63.941406 C 72.882812 -61.0625 65.546875 -59.625 57.074219 -59.625 L 42.652344 -59.625 L 42.652344 -70.054688 L 53.082031 -70.054688 L 53.082031 10.433594 L -2.601562 10.433594 L -2.601562 -187.425781 Z M 7.828125 -166.5625 L 7.828125 -176.992188 L 18.261719 -176.992188 L 18.261719 0 L 7.828125 0 L 7.828125 -10.433594 L 42.652344 -10.433594 L 42.652344 0 L 32.21875 0 L 32.21875 -80.488281 L 57.074219 -80.488281 C 62.476562 -80.488281 66.882812 -81.28125 70.296875 -82.867188 C 73.171875 -84.199219 75.394531 -86.183594 76.976562 -88.816406 C 81.34375 -96.09375 83.523438 -107.558594 83.523438 -123.214844 C 83.523438 -138.707031 81.082031 -150.144531 76.191406 -157.535156 C 74.277344 -160.429688 71.707031 -162.605469 68.484375 -164.0625 C 64.804688 -165.730469 60.175781 -166.5625 54.601562 -166.5625 Z M 44.710938 -112.425781 C 45.976562 -112.425781 46.96875 -112.515625 47.691406 -112.699219 C 47.84375 -112.738281 47.945312 -112.769531 47.996094 -112.792969 C 47.886719 -112.738281 47.753906 -112.65625 47.605469 -112.535156 C 47.558594 -112.5 47.53125 -112.472656 47.519531 -112.453125 C 47.617188 -112.625 47.710938 -112.90625 47.792969 -113.296875 C 48.261719 -115.546875 48.496094 -119.058594 48.496094 -123.832031 C 48.496094 -127.011719 48.332031 -129.675781 48 -131.828125 C 47.753906 -133.429688 47.460938 -134.566406 47.125 -135.238281 C 47.339844 -134.816406 47.65625 -134.496094 48.082031 -134.285156 C 48.113281 -134.269531 48.128906 -134.261719 48.136719 -134.257812 C 48.082031 -134.277344 48.011719 -134.292969 47.921875 -134.3125 C 47.566406 -134.382812 47.113281 -134.417969 46.566406 -134.417969 L 42.652344 -134.417969 L 42.652344 -144.851562 L 53.082031 -144.851562 L 53.082031 -101.992188 L 42.652344 -101.992188 L 42.652344 -112.425781 Z M 44.710938 -91.5625 L 32.21875 -91.5625 L 32.21875 -155.28125 L 46.566406 -155.28125 C 50.679688 -155.28125 54.296875 -154.503906 57.414062 -152.945312 C 61.132812 -151.082031 63.925781 -148.292969 65.785156 -144.570312 C 68.167969 -139.804688 69.359375 -132.894531 69.359375 -123.832031 C 69.359375 -117.617188 68.976562 -112.683594 68.210938 -109.023438 C 67.078125 -103.609375 64.53125 -99.332031 60.570312 -96.1875 C 56.679688 -93.105469 51.394531 -91.5625 44.710938 -91.5625 Z M 44.710938 -91.5625 "/></g></g></g><g fill="#000000" fill-opacity="1"><g transform="translate(102.279119, 236.616233)"><g><path d="M 7.828125 -187.425781 L 62.226562 -187.425781 C 73.378906 -187.425781 82.292969 -184.671875 88.960938 -179.164062 C 95.507812 -173.753906 99.875 -166.367188 102.054688 -157.003906 C 103.886719 -149.152344 104.800781 -139.332031 104.800781 -127.542969 C 104.800781 -115.980469 103.171875 -106.691406 99.917969 -99.667969 C 96.058594 -91.335938 89.492188 -85.589844 80.21875 -82.433594 L 76.855469 -92.308594 L 78.953125 -102.527344 C 87.410156 -100.792969 93.621094 -96.417969 97.582031 -89.402344 C 100.882812 -83.550781 102.535156 -76.074219 102.535156 -66.964844 L 102.058594 10.433594 L 46.644531 10.433594 L 46.644531 -69.230469 C 46.644531 -70.667969 46.554688 -71.683594 46.375 -72.273438 C 46.410156 -72.152344 46.503906 -71.976562 46.652344 -71.742188 C 47.015625 -71.171875 47.507812 -70.664062 48.125 -70.222656 C 48.378906 -70.042969 48.585938 -69.921875 48.75 -69.859375 C 48.621094 -69.90625 48.410156 -69.960938 48.113281 -70.019531 C 47.023438 -70.230469 45.546875 -70.339844 43.683594 -70.339844 L 43.683594 -80.769531 L 54.113281 -80.769531 L 54.113281 10.433594 L -2.601562 10.433594 L -2.601562 -187.425781 Z M 7.828125 -166.5625 L 7.828125 -176.992188 L 18.261719 -176.992188 L 18.261719 0 L 7.828125 0 L 7.828125 -10.433594 L 43.683594 -10.433594 L 43.683594 0 L 33.25 0 L 33.25 -91.203125 L 43.683594 -91.203125 C 50.992188 -91.203125 56.515625 -89.867188 60.253906 -87.199219 C 65.089844 -83.746094 67.507812 -77.753906 67.507812 -69.230469 L 67.507812 0 L 57.074219 0 L 57.074219 -10.433594 L 91.691406 -10.433594 L 91.691406 0 L 81.257812 -0.0625 L 81.671875 -66.964844 C 81.671875 -72.417969 80.917969 -76.476562 79.414062 -79.144531 C 78.566406 -80.644531 77.015625 -81.628906 74.757812 -82.089844 L 37.136719 -89.808594 L 73.492188 -102.183594 C 77.132812 -103.421875 79.628906 -105.507812 80.988281 -108.4375 C 82.953125 -112.679688 83.9375 -119.046875 83.9375 -127.542969 C 83.9375 -137.730469 83.203125 -145.972656 81.738281 -152.269531 C 80.621094 -157.058594 78.601562 -160.660156 75.671875 -163.078125 C 72.859375 -165.402344 68.378906 -166.5625 62.226562 -166.5625 Z M 52.335938 -121.902344 C 51.324219 -121.902344 50.367188 -121.578125 49.472656 -120.933594 C 48.921875 -120.535156 48.574219 -120.175781 48.425781 -119.859375 C 49.023438 -121.152344 49.320312 -123.710938 49.320312 -127.542969 C 49.320312 -131.605469 49.167969 -134.503906 48.863281 -136.238281 C 48.828125 -136.433594 48.792969 -136.59375 48.757812 -136.710938 L 48.753906 -136.726562 C 48.769531 -136.6875 48.789062 -136.640625 48.8125 -136.589844 C 49.109375 -135.953125 49.601562 -135.355469 50.289062 -134.796875 C 50.855469 -134.339844 51.433594 -134.027344 52.023438 -133.859375 C 52.140625 -133.824219 52.238281 -133.804688 52.316406 -133.792969 C 52.28125 -133.796875 52.21875 -133.800781 52.128906 -133.800781 L 43.886719 -133.800781 L 43.886719 -144.230469 L 54.320312 -144.230469 L 54.320312 -111.472656 L 43.886719 -111.472656 L 43.886719 -121.902344 Z M 52.335938 -101.039062 L 33.457031 -101.039062 L 33.457031 -154.664062 L 52.128906 -154.664062 C 56.660156 -154.664062 60.429688 -153.4375 63.445312 -150.988281 C 66.558594 -148.460938 68.546875 -144.753906 69.40625 -139.863281 C 69.925781 -136.929688 70.183594 -132.820312 70.183594 -127.542969 C 70.183594 -120.65625 69.246094 -115.183594 67.371094 -111.117188 C 65.988281 -108.121094 64.09375 -105.757812 61.6875 -104.019531 C 58.9375 -102.03125 55.820312 -101.039062 52.335938 -101.039062 Z M 52.335938 -101.039062 "/></g></g></g><g fill="#000000" fill-opacity="1"><g transform="translate(200.559351, 236.616233)"><g><path d="M 50.070312 12.082031 C 32.566406 12.082031 19.066406 6.496094 9.566406 -4.675781 C 0.492188 -15.347656 -4.042969 -29.859375 -4.042969 -48.214844 L -4.042969 -132.488281 C -4.042969 -150.523438 0.628906 -164.429688 9.972656 -174.207031 C 19.445312 -184.117188 32.808594 -189.074219 50.070312 -189.074219 C 67.328125 -189.074219 80.695312 -184.117188 90.164062 -174.207031 C 99.511719 -164.429688 104.183594 -150.523438 104.183594 -132.488281 L 104.183594 -48.214844 C 104.183594 -29.707031 99.636719 -15.152344 90.542969 -4.542969 C 81.046875 6.539062 67.554688 12.082031 50.070312 12.082031 Z M 50.070312 -8.785156 C 61.15625 -8.785156 69.367188 -11.894531 74.703125 -18.121094 C 80.449219 -24.820312 83.320312 -34.851562 83.320312 -48.214844 L 83.320312 -132.488281 C 83.320312 -144.945312 80.574219 -154.046875 75.082031 -159.792969 C 69.71875 -165.402344 61.382812 -168.210938 50.070312 -168.210938 C 38.757812 -168.210938 30.417969 -165.402344 25.054688 -159.792969 C 19.566406 -154.046875 16.820312 -144.945312 16.820312 -132.488281 L 16.820312 -48.214844 C 16.820312 -34.976562 19.699219 -24.96875 25.460938 -18.195312 C 30.796875 -11.921875 39 -8.785156 50.070312 -8.785156 Z M 50.070312 -41.339844 C 49.601562 -41.339844 49.039062 -41.125 48.378906 -40.703125 C 47.582031 -40.1875 47.046875 -39.585938 46.769531 -38.902344 C 47.371094 -40.40625 47.671875 -42.960938 47.671875 -46.566406 L 47.671875 -133.105469 C 47.671875 -135.523438 47.4375 -137.28125 46.972656 -138.371094 C 47.371094 -137.4375 48.054688 -136.691406 49.023438 -136.136719 C 49.398438 -135.921875 49.765625 -135.773438 50.117188 -135.691406 C 50.203125 -135.671875 50.273438 -135.660156 50.332031 -135.652344 C 50.328125 -135.65625 50.308594 -135.65625 50.273438 -135.65625 C 50.453125 -135.65625 50.722656 -135.746094 51.09375 -135.933594 C 51.636719 -136.207031 52.050781 -136.558594 52.332031 -136.984375 L 52.355469 -137.007812 C 52.285156 -136.828125 52.21875 -136.597656 52.15625 -136.304688 C 51.949219 -135.371094 51.847656 -134.167969 51.847656 -132.695312 L 51.847656 -46.359375 C 51.847656 -42.839844 52.128906 -40.484375 52.695312 -39.289062 C 52.382812 -39.949219 51.851562 -40.492188 51.101562 -40.925781 C 50.78125 -41.109375 50.472656 -41.238281 50.171875 -41.308594 C 50.101562 -41.324219 50.042969 -41.335938 49.996094 -41.339844 C 50.003906 -41.339844 50.027344 -41.339844 50.070312 -41.339844 Z M 50.070312 -20.476562 C 46.5625 -20.476562 43.4375 -21.265625 40.691406 -22.84375 C 37.675781 -24.582031 35.390625 -27.085938 33.84375 -30.355469 C 31.9375 -34.378906 30.984375 -39.714844 30.984375 -46.359375 L 30.984375 -132.695312 C 30.984375 -139.25 32.300781 -144.515625 34.929688 -148.492188 C 36.6875 -151.152344 38.945312 -153.175781 41.703125 -154.566406 C 44.289062 -155.867188 47.144531 -156.519531 50.273438 -156.519531 C 53.707031 -156.519531 56.753906 -155.757812 59.40625 -154.234375 C 62.46875 -152.476562 64.71875 -149.929688 66.148438 -146.589844 C 67.742188 -142.875 68.535156 -138.378906 68.535156 -133.105469 L 68.535156 -46.566406 C 68.535156 -40.28125 67.738281 -35.144531 66.140625 -31.152344 C 64.769531 -27.722656 62.617188 -25.058594 59.691406 -23.171875 C 56.90625 -21.375 53.699219 -20.476562 50.070312 -20.476562 Z M 50.070312 -20.476562 "/></g></g></g><g fill="#000000" fill-opacity="1"><g transform="translate(300.693918, 236.616233)"><g><path d="M 49.039062 12.082031 C 33.15625 12.082031 20.308594 6.957031 10.496094 -3.292969 C 0.800781 -13.414062 -4.042969 -26.945312 -4.042969 -43.886719 L -4.042969 -125.480469 C -4.042969 -145.46875 0.199219 -160.871094 8.6875 -171.6875 C 17.78125 -183.277344 31.507812 -189.074219 49.863281 -189.074219 C 65.574219 -189.074219 78.402344 -184.613281 88.351562 -175.695312 C 98.632812 -166.480469 103.769531 -153.585938 103.769531 -137.019531 L 103.769531 -96.09375 L 47.671875 -96.09375 L 47.671875 -132.695312 C 47.671875 -134.625 47.570312 -136.167969 47.367188 -137.320312 C 47.308594 -137.664062 47.25 -137.921875 47.191406 -138.089844 C 47.230469 -137.96875 47.328125 -137.792969 47.476562 -137.5625 C 47.96875 -136.792969 48.621094 -136.222656 49.433594 -135.859375 C 49.664062 -135.753906 49.867188 -135.683594 50.046875 -135.652344 L 50.0625 -135.648438 C 50.007812 -135.652344 49.941406 -135.65625 49.863281 -135.65625 C 49.796875 -135.65625 49.742188 -135.652344 49.707031 -135.648438 C 49.722656 -135.652344 49.75 -135.65625 49.789062 -135.664062 C 50.035156 -135.714844 50.304688 -135.8125 50.59375 -135.960938 C 51.472656 -136.40625 52.136719 -137.050781 52.585938 -137.894531 C 52.511719 -137.753906 52.421875 -137.410156 52.324219 -136.863281 C 52.144531 -135.863281 52.054688 -134.609375 52.054688 -133.105469 L 52.054688 -44.300781 C 52.054688 -42.660156 52.15625 -41.332031 52.363281 -40.3125 C 52.425781 -40 52.488281 -39.753906 52.554688 -39.578125 L 52.5625 -39.558594 C 52.535156 -39.617188 52.496094 -39.683594 52.449219 -39.757812 C 52.128906 -40.25 51.664062 -40.65625 51.046875 -40.972656 C 50.574219 -41.214844 50.179688 -41.339844 49.863281 -41.339844 C 49.472656 -41.339844 49.019531 -41.199219 48.5 -40.917969 C 47.894531 -40.589844 47.449219 -40.191406 47.160156 -39.722656 L 47.160156 -39.75 C 47.234375 -39.953125 47.304688 -40.214844 47.371094 -40.535156 C 47.574219 -41.519531 47.671875 -42.773438 47.671875 -44.300781 L 47.671875 -86.667969 L 104.183594 -86.667969 L 104.183594 -42.859375 C 104.183594 -25.132812 99.433594 -11.542969 89.933594 -2.085938 C 80.445312 7.359375 66.8125 12.082031 49.039062 12.082031 Z M 49.039062 -8.785156 C 61.070312 -8.785156 69.796875 -11.480469 75.214844 -16.871094 C 80.617188 -22.25 83.320312 -30.914062 83.320312 -42.859375 L 83.320312 -76.238281 L 93.75 -76.238281 L 93.75 -65.804688 L 58.105469 -65.804688 L 58.105469 -76.238281 L 68.535156 -76.238281 L 68.535156 -44.300781 C 68.535156 -37.867188 67.335938 -32.695312 64.929688 -28.789062 C 63.265625 -26.085938 61.101562 -24.015625 58.4375 -22.570312 C 55.855469 -21.175781 53 -20.476562 49.863281 -20.476562 C 46.800781 -20.476562 44 -21.128906 41.46875 -22.4375 C 38.792969 -23.820312 36.609375 -25.824219 34.914062 -28.445312 C 32.433594 -32.296875 31.191406 -37.582031 31.191406 -44.300781 L 31.191406 -133.105469 C 31.191406 -139.097656 32.179688 -143.957031 34.160156 -147.683594 C 35.777344 -150.726562 38.105469 -153.019531 41.148438 -154.5625 C 43.714844 -155.867188 46.617188 -156.519531 49.863281 -156.519531 C 52.871094 -156.519531 55.589844 -155.96875 58.019531 -154.871094 C 60.960938 -153.546875 63.292969 -151.535156 65.027344 -148.84375 C 67.367188 -145.203125 68.535156 -139.820312 68.535156 -132.695312 L 68.535156 -106.527344 L 58.105469 -106.527344 L 58.105469 -116.957031 L 93.339844 -116.957031 L 93.339844 -106.527344 L 82.90625 -106.527344 L 82.90625 -137.019531 C 82.90625 -147.375 80.078125 -155.089844 74.425781 -160.160156 C 68.4375 -165.527344 60.25 -168.210938 49.863281 -168.210938 C 38.273438 -168.210938 30.019531 -165.078125 25.101562 -158.808594 C 19.582031 -151.769531 16.820312 -140.660156 16.820312 -125.480469 L 16.820312 -43.886719 C 16.820312 -32.53125 19.734375 -23.8125 25.5625 -17.722656 C 31.269531 -11.761719 39.097656 -8.785156 49.039062 -8.785156 Z M 49.039062 -8.785156 "/></g></g></g><g fill="#000000" fill-opacity="1"><g transform="translate(398.356078, 236.616233)"><g><path d="M 50.070312 12.082031 C 32.566406 12.082031 19.066406 6.496094 9.566406 -4.675781 C 0.492188 -15.347656 -4.042969 -29.859375 -4.042969 -48.214844 L -4.042969 -132.488281 C -4.042969 -150.523438 0.628906 -164.429688 9.972656 -174.207031 C 19.445312 -184.117188 32.808594 -189.074219 50.070312 -189.074219 C 67.328125 -189.074219 80.695312 -184.117188 90.164062 -174.207031 C 99.511719 -164.429688 104.183594 -150.523438 104.183594 -132.488281 L 104.183594 -48.214844 C 104.183594 -29.707031 99.636719 -15.152344 90.542969 -4.542969 C 81.046875 6.539062 67.554688 12.082031 50.070312 12.082031 Z M 50.070312 -8.785156 C 61.15625 -8.785156 69.367188 -11.894531 74.703125 -18.121094 C 80.449219 -24.820312 83.320312 -34.851562 83.320312 -48.214844 L 83.320312 -132.488281 C 83.320312 -144.945312 80.574219 -154.046875 75.082031 -159.792969 C 69.71875 -165.402344 61.382812 -168.210938 50.070312 -168.210938 C 38.757812 -168.210938 30.417969 -165.402344 25.054688 -159.792969 C 19.566406 -154.046875 16.820312 -144.945312 16.820312 -132.488281 L 16.820312 -48.214844 C 16.820312 -34.976562 19.699219 -24.96875 25.460938 -18.195312 C 30.796875 -11.921875 39 -8.785156 50.070312 -8.785156 Z M 50.070312 -41.339844 C 49.601562 -41.339844 49.039062 -41.125 48.378906 -40.703125 C 47.582031 -40.1875 47.046875 -39.585938 46.769531 -38.902344 C 47.371094 -40.40625 47.671875 -42.960938 47.671875 -46.566406 L 47.671875 -133.105469 C 47.671875 -135.523438 47.4375 -137.28125 46.972656 -138.371094 C 47.371094 -137.4375 48.054688 -136.691406 49.023438 -136.136719 C 49.398438 -135.921875 49.765625 -135.773438 50.117188 -135.691406 C 50.203125 -135.671875 50.273438 -135.660156 50.332031 -135.652344 C 50.328125 -135.65625 50.308594 -135.65625 50.273438 -135.65625 C 50.453125 -135.65625 50.722656 -135.746094 51.09375 -135.933594 C 51.636719 -136.207031 52.050781 -136.558594 52.332031 -136.984375 L 52.355469 -137.007812 C 52.285156 -136.828125 52.21875 -136.597656 52.15625 -136.304688 C 51.949219 -135.371094 51.847656 -134.167969 51.847656 -132.695312 L 51.847656 -46.359375 C 51.847656 -42.839844 52.128906 -40.484375 52.695312 -39.289062 C 52.382812 -39.949219 51.851562 -40.492188 51.101562 -40.925781 C 50.78125 -41.109375 50.472656 -41.238281 50.171875 -41.308594 C 50.101562 -41.324219 50.042969 -41.335938 49.996094 -41.339844 C 50.003906 -41.339844 50.027344 -41.339844 50.070312 -41.339844 Z M 50.070312 -20.476562 C 46.5625 -20.476562 43.4375 -21.265625 40.691406 -22.84375 C 37.675781 -24.582031 35.390625 -27.085938 33.84375 -30.355469 C 31.9375 -34.378906 30.984375 -39.714844 30.984375 -46.359375 L 30.984375 -132.695312 C 30.984375 -139.25 32.300781 -144.515625 34.929688 -148.492188 C 36.6875 -151.152344 38.945312 -153.175781 41.703125 -154.566406 C 44.289062 -155.867188 47.144531 -156.519531 50.273438 -156.519531 C 53.707031 -156.519531 56.753906 -155.757812 59.40625 -154.234375 C 62.46875 -152.476562 64.71875 -149.929688 66.148438 -146.589844 C 67.742188 -142.875 68.535156 -138.378906 68.535156 -133.105469 L 68.535156 -46.566406 C 68.535156 -40.28125 67.738281 -35.144531 66.140625 -31.152344 C 64.769531 -27.722656 62.617188 -25.058594 59.691406 -23.171875 C 56.90625 -21.375 53.699219 -20.476562 50.070312 -20.476562 Z M 50.070312 -20.476562 "/></g></g></g><g fill="#000000" fill-opacity="1"><g transform="translate(498.490645, 236.616233)"><g><path d="M -7.292969 -1.003906 L 10.71875 -187.425781 L 89.636719 -187.425781 L 108.523438 10.433594 L 53.890625 10.433594 L 50.597656 -27.742188 L 60.988281 -28.640625 L 60.988281 -18.207031 L 39.5625 -18.207031 L 39.5625 -28.640625 L 49.964844 -27.890625 L 47.207031 10.433594 L -8.398438 10.433594 Z M 13.472656 1.003906 L 3.089844 0 L 3.089844 -10.433594 L 37.5 -10.433594 L 37.5 0 L 27.09375 -0.75 L 29.851562 -39.070312 L 70.558594 -39.070312 L 73.855469 -0.898438 L 63.460938 0 L 63.460938 -10.433594 L 97.046875 -10.433594 L 97.046875 0 L 86.664062 0.992188 L 69.765625 -176.003906 L 80.152344 -176.992188 L 80.152344 -166.5625 L 20.191406 -166.5625 L 20.191406 -176.992188 L 30.574219 -175.988281 Z M 42.238281 -67.300781 L 58.3125 -67.300781 L 58.3125 -56.867188 L 47.917969 -55.964844 L 40.089844 -146.007812 L 50.480469 -146.910156 L 50.480469 -136.480469 L 48.832031 -136.480469 L 48.832031 -146.910156 L 59.238281 -146.148438 L 52.644531 -56.105469 L 42.238281 -56.867188 Z M 31.015625 -46.4375 L 39.136719 -157.34375 L 60.046875 -157.34375 L 69.6875 -46.4375 Z M 31.015625 -46.4375 "/></g></g></g><g fill="#000000" fill-opacity="1"><g transform="translate(598.419229, 236.616233)"><g><path d="M 49.039062 12.082031 C 33.15625 12.082031 20.308594 6.957031 10.496094 -3.292969 C 0.800781 -13.414062 -4.042969 -26.945312 -4.042969 -43.886719 L -4.042969 -125.480469 C -4.042969 -145.46875 0.199219 -160.871094 8.6875 -171.6875 C 17.78125 -183.277344 31.507812 -189.074219 49.863281 -189.074219 C 65.574219 -189.074219 78.402344 -184.613281 88.351562 -175.695312 C 98.632812 -166.480469 103.769531 -153.585938 103.769531 -137.019531 L 103.769531 -96.09375 L 47.671875 -96.09375 L 47.671875 -132.695312 C 47.671875 -134.625 47.570312 -136.167969 47.367188 -137.320312 C 47.308594 -137.664062 47.25 -137.921875 47.191406 -138.089844 C 47.230469 -137.96875 47.328125 -137.792969 47.476562 -137.5625 C 47.96875 -136.792969 48.621094 -136.222656 49.433594 -135.859375 C 49.664062 -135.753906 49.867188 -135.683594 50.046875 -135.652344 L 50.0625 -135.648438 C 50.007812 -135.652344 49.941406 -135.65625 49.863281 -135.65625 C 49.796875 -135.65625 49.742188 -135.652344 49.707031 -135.648438 C 49.722656 -135.652344 49.75 -135.65625 49.789062 -135.664062 C 50.035156 -135.714844 50.304688 -135.8125 50.59375 -135.960938 C 51.472656 -136.40625 52.136719 -137.050781 52.585938 -137.894531 C 52.511719 -137.753906 52.421875 -137.410156 52.324219 -136.863281 C 52.144531 -135.863281 52.054688 -134.609375 52.054688 -133.105469 L 52.054688 -44.300781 C 52.054688 -42.660156 52.15625 -41.332031 52.363281 -40.3125 C 52.425781 -40 52.488281 -39.753906 52.554688 -39.578125 L 52.5625 -39.558594 C 52.535156 -39.617188 52.496094 -39.683594 52.449219 -39.757812 C 52.128906 -40.25 51.664062 -40.65625 51.046875 -40.972656 C 50.574219 -41.214844 50.179688 -41.339844 49.863281 -41.339844 C 49.472656 -41.339844 49.019531 -41.199219 48.5 -40.917969 C 47.894531 -40.589844 47.449219 -40.191406 47.160156 -39.722656 L 47.160156 -39.75 C 47.234375 -39.953125 47.304688 -40.214844 47.371094 -40.535156 C 47.574219 -41.519531 47.671875 -42.773438 47.671875 -44.300781 L 47.671875 -86.667969 L 104.183594 -86.667969 L 104.183594 -42.859375 C 104.183594 -25.132812 99.433594 -11.542969 89.933594 -2.085938 C 80.445312 7.359375 66.8125 12.082031 49.039062 12.082031 Z M 49.039062 -8.785156 C 61.070312 -8.785156 69.796875 -11.480469 75.214844 -16.871094 C 80.617188 -22.25 83.320312 -30.914062 83.320312 -42.859375 L 83.320312 -76.238281 L 93.75 -76.238281 L 93.75 -65.804688 L 58.105469 -65.804688 L 58.105469 -76.238281 L 68.535156 -76.238281 L 68.535156 -44.300781 C 68.535156 -37.867188 67.335938 -32.695312 64.929688 -28.789062 C 63.265625 -26.085938 61.101562 -24.015625 58.4375 -22.570312 C 55.855469 -21.175781 53 -20.476562 49.863281 -20.476562 C 46.800781 -20.476562 44 -21.128906 41.46875 -22.4375 C 38.792969 -23.820312 36.609375 -25.824219 34.914062 -28.445312 C 32.433594 -32.296875 31.191406 -37.582031 31.191406 -44.300781 L 31.191406 -133.105469 C 31.191406 -139.097656 32.179688 -143.957031 34.160156 -147.683594 C 35.777344 -150.726562 38.105469 -153.019531 41.148438 -154.5625 C 43.714844 -155.867188 46.617188 -156.519531 49.863281 -156.519531 C 52.871094 -156.519531 55.589844 -155.96875 58.019531 -154.871094 C 60.960938 -153.546875 63.292969 -151.535156 65.027344 -148.84375 C 67.367188 -145.203125 68.535156 -139.820312 68.535156 -132.695312 L 68.535156 -106.527344 L 58.105469 -106.527344 L 58.105469 -116.957031 L 93.339844 -116.957031 L 93.339844 -106.527344 L 82.90625 -106.527344 L 82.90625 -137.019531 C 82.90625 -147.375 80.078125 -155.089844 74.425781 -160.160156 C 68.4375 -165.527344 60.25 -168.210938 49.863281 -168.210938 C 38.273438 -168.210938 30.019531 -165.078125 25.101562 -158.808594 C 19.582031 -151.769531 16.820312 -140.660156 16.820312 -125.480469 L 16.820312 -43.886719 C 16.820312 -32.53125 19.734375 -23.8125 25.5625 -17.722656 C 31.269531 -11.761719 39.097656 -8.785156 49.039062 -8.785156 Z M 49.039062 -8.785156 "/></g></g></g><g fill="#000000" fill-opacity="1"><g transform="translate(696.081389, 236.616233)"><g><path d="M -2.601562 0 L -2.601562 -187.425781 L 53.496094 -187.425781 L 53.496094 -113.738281 L 43.0625 -113.738281 L 43.0625 -124.167969 L 59.753906 -124.167969 L 59.753906 -113.738281 L 49.320312 -113.738281 L 49.320312 -187.425781 L 105.417969 -187.425781 L 105.417969 10.433594 L 49.320312 10.433594 L 49.320312 -80.359375 L 59.753906 -80.359375 L 59.753906 -69.925781 L 43.0625 -69.925781 L 43.0625 -80.359375 L 53.496094 -80.359375 L 53.496094 10.433594 L -2.601562 10.433594 Z M 18.261719 0 L 7.828125 0 L 7.828125 -10.433594 L 43.0625 -10.433594 L 43.0625 0 L 32.632812 0 L 32.632812 -90.789062 L 70.183594 -90.789062 L 70.183594 0 L 59.753906 0 L 59.753906 -10.433594 L 94.988281 -10.433594 L 94.988281 0 L 84.554688 0 L 84.554688 -176.992188 L 94.988281 -176.992188 L 94.988281 -166.5625 L 59.753906 -166.5625 L 59.753906 -176.992188 L 70.183594 -176.992188 L 70.183594 -103.304688 L 32.632812 -103.304688 L 32.632812 -176.992188 L 43.0625 -176.992188 L 43.0625 -166.5625 L 7.828125 -166.5625 L 7.828125 -176.992188 L 18.261719 -176.992188 Z M 18.261719 0 "/></g></g></g><g fill="#d7fa00" fill-opacity="1"><g transform="translate(5.029046, 236.616233)"><g><path d="M 7.828125 -177 L 54.609375 -177 C 68.753906 -177 78.847656 -172.429688 84.890625 -163.296875 C 90.929688 -154.160156 93.953125 -140.800781 93.953125 -123.21875 C 93.953125 -105.632812 91.273438 -92.378906 85.921875 -83.453125 C 80.566406 -74.523438 70.953125 -70.0625 57.078125 -70.0625 L 42.65625 -70.0625 L 42.65625 0 L 7.828125 0 Z M 44.71875 -102 C 48.96875 -102 52.085938 -102.785156 54.078125 -104.359375 C 56.078125 -105.941406 57.382812 -108.207031 58 -111.15625 C 58.613281 -114.113281 58.921875 -118.335938 58.921875 -123.828125 C 58.921875 -131.242188 58.097656 -136.597656 56.453125 -139.890625 C 54.804688 -143.191406 51.507812 -144.84375 46.5625 -144.84375 L 42.65625 -144.84375 L 42.65625 -102 Z M 44.71875 -102 "/></g></g></g><g fill="#d7fa00" fill-opacity="1"><g transform="translate(102.279119, 236.616233)"><g><path d="M 7.828125 -177 L 62.21875 -177 C 70.875 -177 77.570312 -175.039062 82.3125 -171.125 C 87.050781 -167.207031 90.242188 -161.710938 91.890625 -154.640625 C 93.546875 -147.566406 94.375 -138.535156 94.375 -127.546875 C 94.375 -117.515625 93.066406 -109.679688 90.453125 -104.046875 C 87.847656 -98.421875 83.316406 -94.507812 76.859375 -92.3125 C 82.210938 -91.207031 86.09375 -88.523438 88.5 -84.265625 C 90.90625 -80.015625 92.109375 -74.25 92.109375 -66.96875 L 91.6875 0 L 57.078125 0 L 57.078125 -69.234375 C 57.078125 -74.179688 56.113281 -77.335938 54.1875 -78.703125 C 52.269531 -80.078125 48.769531 -80.765625 43.6875 -80.765625 L 43.6875 0 L 7.828125 0 Z M 52.328125 -111.46875 C 57.273438 -111.46875 59.75 -116.828125 59.75 -127.546875 C 59.75 -132.210938 59.539062 -135.710938 59.125 -138.046875 C 58.71875 -140.378906 57.960938 -141.992188 56.859375 -142.890625 C 55.765625 -143.785156 54.1875 -144.234375 52.125 -144.234375 L 43.890625 -144.234375 L 43.890625 -111.46875 Z M 52.328125 -111.46875 "/></g></g></g><g fill="#d7fa00" fill-opacity="1"><g transform="translate(200.559351, 236.616233)"><g><path d="M 50.0625 1.640625 C 35.78125 1.640625 24.929688 -2.71875 17.515625 -11.4375 C 10.097656 -20.15625 6.390625 -32.414062 6.390625 -48.21875 L 6.390625 -132.484375 C 6.390625 -147.734375 10.097656 -159.238281 17.515625 -167 C 24.929688 -174.757812 35.78125 -178.640625 50.0625 -178.640625 C 64.351562 -178.640625 75.207031 -174.757812 82.625 -167 C 90.039062 -159.238281 93.75 -147.734375 93.75 -132.484375 L 93.75 -48.21875 C 93.75 -32.28125 90.039062 -19.984375 82.625 -11.328125 C 75.207031 -2.679688 64.351562 1.640625 50.0625 1.640625 Z M 50.0625 -30.90625 C 53.226562 -30.90625 55.359375 -32.28125 56.453125 -35.03125 C 57.554688 -37.78125 58.109375 -41.625 58.109375 -46.5625 L 58.109375 -133.109375 C 58.109375 -136.953125 57.59375 -140.078125 56.5625 -142.484375 C 55.53125 -144.890625 53.4375 -146.09375 50.28125 -146.09375 C 44.375 -146.09375 41.421875 -141.625 41.421875 -132.6875 L 41.421875 -46.359375 C 41.421875 -41.273438 42.035156 -37.425781 43.265625 -34.8125 C 44.503906 -32.207031 46.769531 -30.90625 50.0625 -30.90625 Z M 50.0625 -30.90625 "/></g></g></g><g fill="#d7fa00" fill-opacity="1"><g transform="translate(300.693918, 236.616233)"><g><path d="M 49.046875 1.640625 C 36.128906 1.640625 25.789062 -2.410156 18.03125 -10.515625 C 10.269531 -18.617188 6.390625 -29.742188 6.390625 -43.890625 L 6.390625 -125.484375 C 6.390625 -143.066406 9.890625 -156.320312 16.890625 -165.25 C 23.898438 -174.175781 34.890625 -178.640625 49.859375 -178.640625 C 62.910156 -178.640625 73.421875 -175.066406 81.390625 -167.921875 C 89.359375 -160.785156 93.34375 -150.484375 93.34375 -137.015625 L 93.34375 -106.53125 L 58.109375 -106.53125 L 58.109375 -132.6875 C 58.109375 -137.769531 57.488281 -141.273438 56.25 -143.203125 C 55.007812 -145.128906 52.878906 -146.09375 49.859375 -146.09375 C 46.703125 -146.09375 44.539062 -144.992188 43.375 -142.796875 C 42.207031 -140.597656 41.625 -137.367188 41.625 -133.109375 L 41.625 -44.296875 C 41.625 -39.628906 42.3125 -36.226562 43.6875 -34.09375 C 45.0625 -31.96875 47.117188 -30.90625 49.859375 -30.90625 C 55.359375 -30.90625 58.109375 -35.367188 58.109375 -44.296875 L 58.109375 -76.234375 L 93.75 -76.234375 L 93.75 -42.859375 C 93.75 -13.191406 78.847656 1.640625 49.046875 1.640625 Z M 49.046875 1.640625 "/></g></g></g><g fill="#d7fa00" fill-opacity="1"><g transform="translate(398.356078, 236.616233)"><g><path d="M 50.0625 1.640625 C 35.78125 1.640625 24.929688 -2.71875 17.515625 -11.4375 C 10.097656 -20.15625 6.390625 -32.414062 6.390625 -48.21875 L 6.390625 -132.484375 C 6.390625 -147.734375 10.097656 -159.238281 17.515625 -167 C 24.929688 -174.757812 35.78125 -178.640625 50.0625 -178.640625 C 64.351562 -178.640625 75.207031 -174.757812 82.625 -167 C 90.039062 -159.238281 93.75 -147.734375 93.75 -132.484375 L 93.75 -48.21875 C 93.75 -32.28125 90.039062 -19.984375 82.625 -11.328125 C 75.207031 -2.679688 64.351562 1.640625 50.0625 1.640625 Z M 50.0625 -30.90625 C 53.226562 -30.90625 55.359375 -32.28125 56.453125 -35.03125 C 57.554688 -37.78125 58.109375 -41.625 58.109375 -46.5625 L 58.109375 -133.109375 C 58.109375 -136.953125 57.59375 -140.078125 56.5625 -142.484375 C 55.53125 -144.890625 53.4375 -146.09375 50.28125 -146.09375 C 44.375 -146.09375 41.421875 -141.625 41.421875 -132.6875 L 41.421875 -46.359375 C 41.421875 -41.273438 42.035156 -37.425781 43.265625 -34.8125 C 44.503906 -32.207031 46.769531 -30.90625 50.0625 -30.90625 Z M 50.0625 -30.90625 "/></g></g></g><g fill="#d7fa00" fill-opacity="1"><g transform="translate(498.490645, 236.616233)"><g><path d="M 3.09375 0 L 20.1875 -177 L 80.15625 -177 L 97.046875 0 L 63.46875 0 L 60.984375 -28.640625 L 39.5625 -28.640625 L 37.5 0 Z M 42.234375 -56.875 L 58.3125 -56.875 L 50.484375 -146.90625 L 48.828125 -146.90625 Z M 42.234375 -56.875 "/></g></g></g><g fill="#d7fa00" fill-opacity="1"><g transform="translate(598.419229, 236.616233)"><g><path d="M 49.046875 1.640625 C 36.128906 1.640625 25.789062 -2.410156 18.03125 -10.515625 C 10.269531 -18.617188 6.390625 -29.742188 6.390625 -43.890625 L 6.390625 -125.484375 C 6.390625 -143.066406 9.890625 -156.320312 16.890625 -165.25 C 23.898438 -174.175781 34.890625 -178.640625 49.859375 -178.640625 C 62.910156 -178.640625 73.421875 -175.066406 81.390625 -167.921875 C 89.359375 -160.785156 93.34375 -150.484375 93.34375 -137.015625 L 93.34375 -106.53125 L 58.109375 -106.53125 L 58.109375 -132.6875 C 58.109375 -137.769531 57.488281 -141.273438 56.25 -143.203125 C 55.007812 -145.128906 52.878906 -146.09375 49.859375 -146.09375 C 46.703125 -146.09375 44.539062 -144.992188 43.375 -142.796875 C 42.207031 -140.597656 41.625 -137.367188 41.625 -133.109375 L 41.625 -44.296875 C 41.625 -39.628906 42.3125 -36.226562 43.6875 -34.09375 C 45.0625 -31.96875 47.117188 -30.90625 49.859375 -30.90625 C 55.359375 -30.90625 58.109375 -35.367188 58.109375 -44.296875 L 58.109375 -76.234375 L 93.75 -76.234375 L 93.75 -42.859375 C 93.75 -13.191406 78.847656 1.640625 49.046875 1.640625 Z M 49.046875 1.640625 "/></g></g></g><g fill="#d7fa00" fill-opacity="1"><g transform="translate(696.081389, 236.616233)"><g><path d="M 7.828125 0 L 7.828125 -177 L 43.0625 -177 L 43.0625 -113.734375 L 59.75 -113.734375 L 59.75 -177 L 94.984375 -177 L 94.984375 0 L 59.75 0 L 59.75 -80.359375 L 43.0625 -80.359375 L 43.0625 0 Z M 7.828125 0 "/></g></g></g></g></g><g transform="matrix(1, 0, 0, 1, 590, 1064)"><g clip-path="url(#18fa335320)"><g fill="#6cace3" fill-opacity="0.4"><g transform="translate(4.245907, 62.780137)"><g><path d="M 7.8125 -47.96875 L 12.890625 -47.96875 L 12.890625 0 L 7.8125 0 Z M 7.8125 -47.96875 "/></g></g></g><g fill="#6cace3" fill-opacity="0.4"><g transform="translate(52.080587, 62.780137)"><g><path d="M 47.90625 -47.96875 L 47.90625 0 L 43.71875 0 L 12.890625 -38.921875 L 12.890625 0 L 7.8125 0 L 7.8125 -47.96875 L 12 -47.96875 L 42.90625 -9.046875 L 42.90625 -47.96875 Z M 47.90625 -47.96875 "/></g></g></g><g fill="#6cace3" fill-opacity="0.4"><g transform="translate(134.926683, 62.780137)"><g><path d="M 7.8125 -47.96875 L 27.34375 -47.96875 C 32.414062 -47.96875 36.890625 -46.953125 40.765625 -44.921875 C 44.648438 -42.890625 47.664062 -40.054688 49.8125 -36.421875 C 51.96875 -32.785156 53.046875 -28.640625 53.046875 -23.984375 C 53.046875 -19.328125 51.96875 -15.179688 49.8125 -11.546875 C 47.664062 -7.910156 44.648438 -5.078125 40.765625 -3.046875 C 36.890625 -1.015625 32.414062 0 27.34375 0 L 7.8125 0 Z M 27.0625 -4.390625 C 31.269531 -4.390625 34.945312 -5.222656 38.09375 -6.890625 C 41.25 -8.554688 43.695312 -10.863281 45.4375 -13.8125 C 47.175781 -16.757812 48.046875 -20.148438 48.046875 -23.984375 C 48.046875 -27.828125 47.175781 -31.21875 45.4375 -34.15625 C 43.695312 -37.101562 41.25 -39.410156 38.09375 -41.078125 C 34.945312 -42.742188 31.269531 -43.578125 27.0625 -43.578125 L 12.890625 -43.578125 L 12.890625 -4.390625 Z M 27.0625 -4.390625 "/></g></g></g><g fill="#6cace3" fill-opacity="0.4"><g transform="translate(218.663474, 62.780137)"><g><path d="M 7.8125 -47.96875 L 12.890625 -47.96875 L 12.890625 0 L 7.8125 0 Z M 7.8125 -47.96875 "/></g></g></g><g fill="#6cace3" fill-opacity="0.4"><g transform="translate(266.498154, 62.780137)"><g><path d="M 37.890625 -12.8125 L 11.171875 -12.8125 L 5.40625 0 L 0.140625 0 L 22.0625 -47.96875 L 27.0625 -47.96875 L 49 0 L 43.65625 0 Z M 36.046875 -16.921875 L 24.53125 -42.6875 L 13.015625 -16.921875 Z M 36.046875 -16.921875 "/></g></g></g><g fill="#ffffff" fill-opacity="1"><g transform="translate(4.245907, 62.780137)"><g><path d="M 7.8125 -47.96875 L 12.890625 -47.96875 L 12.890625 0 L 7.8125 0 Z M 7.8125 -47.96875 "/></g></g></g><g fill="#ffffff" fill-opacity="1"><g transform="translate(52.080587, 62.780137)"><g><path d="M 47.90625 -47.96875 L 47.90625 0 L 43.71875 0 L 12.890625 -38.921875 L 12.890625 0 L 7.8125 0 L 7.8125 -47.96875 L 12 -47.96875 L 42.90625 -9.046875 L 42.90625 -47.96875 Z M 47.90625 -47.96875 "/></g></g></g><g fill="#ffffff" fill-opacity="1"><g transform="translate(134.926683, 62.780137)"><g><path d="M 7.8125 -47.96875 L 27.34375 -47.96875 C 32.414062 -47.96875 36.890625 -46.953125 40.765625 -44.921875 C 44.648438 -42.890625 47.664062 -40.054688 49.8125 -36.421875 C 51.96875 -32.785156 53.046875 -28.640625 53.046875 -23.984375 C 53.046875 -19.328125 51.96875 -15.179688 49.8125 -11.546875 C 47.664062 -7.910156 44.648438 -5.078125 40.765625 -3.046875 C 36.890625 -1.015625 32.414062 0 27.34375 0 L 7.8125 0 Z M 27.0625 -4.390625 C 31.269531 -4.390625 34.945312 -5.222656 38.09375 -6.890625 C 41.25 -8.554688 43.695312 -10.863281 45.4375 -13.8125 C 47.175781 -16.757812 48.046875 -20.148438 48.046875 -23.984375 C 48.046875 -27.828125 47.175781 -31.21875 45.4375 -34.15625 C 43.695312 -37.101562 41.25 -39.410156 38.09375 -41.078125 C 34.945312 -42.742188 31.269531 -43.578125 27.0625 -43.578125 L 12.890625 -43.578125 L 12.890625 -4.390625 Z M 27.0625 -4.390625 "/></g></g></g><g fill="#ffffff" fill-opacity="1"><g transform="translate(218.663474, 62.780137)"><g><path d="M 7.8125 -47.96875 L 12.890625 -47.96875 L 12.890625 0 L 7.8125 0 Z M 7.8125 -47.96875 "/></g></g></g><g fill="#ffffff" fill-opacity="1"><g transform="translate(266.498154, 62.780137)"><g><path d="M 37.890625 -12.8125 L 11.171875 -12.8125 L 5.40625 0 L 0.140625 0 L 22.0625 -47.96875 L 27.0625 -47.96875 L 49 0 L 43.65625 0 Z M 36.046875 -16.921875 L 24.53125 -42.6875 L 13.015625 -16.921875 Z M 36.046875 -16.921875 "/></g></g></g></g></g><g clip-path="url(#4f54a413e1)"><path fill="#000000" d="M 722.640625 540.714844 L 782.234375 529.070312 L 720.421875 612.554688 L 759.757812 604.527344 L 571.914062 854.183594 L 697.140625 649.480469 L 648.285156 661.519531 Z M 722.640625 540.714844 " fill-opacity="1" fill-rule="nonzero"/></g></svg>